<svg width="261" height="261" viewBox="0 0 261 261" fill="none" xmlns="http://www.w3.org/2000/svg">
<g filter="url(#filter0_d_20_2145)">
<rect x="40.4038" y="36.0448" width="180" height="180" rx="32" fill="black"/>
<path d="M104 111.684H122.86V113.176H105.728V124.405H121.839V125.897H105.728V138.224H123.057V139.716H104V111.684ZM124.55 111.684H126.554L135.434 124.012L144.511 111.684L156.857 96.0253L136.574 125.308L147.026 139.716H144.943L135.434 126.603L125.886 139.716H123.843L134.374 125.308L124.55 111.684ZM147.773 113.176V111.684H169.266V113.176H159.364V139.716H157.635V113.176H147.773Z" fill="white"/>
<path d="M80.4038 111.684H82.565L112.366 156.064L100.051 139.716L82.2113 113.804L82.1327 139.716H80.4038V111.684Z" fill="white"/>
<path d="M169.092 137.774C169.449 137.774 169.71 137.502 169.71 137.15C169.71 136.798 169.449 136.525 169.092 136.525C168.739 136.525 168.474 136.798 168.474 137.15C168.474 137.502 168.739 137.774 169.092 137.774ZM170.791 136.131C170.791 137.171 171.544 137.849 172.641 137.849C173.81 137.849 174.517 137.15 174.517 135.934V131.656H173.575V135.93C173.575 136.605 173.234 136.965 172.633 136.965C172.094 136.965 171.729 136.63 171.716 136.131H170.791ZM175.749 136.077C175.816 137.158 176.72 137.849 178.066 137.849C179.504 137.849 180.404 137.125 180.404 135.968C180.404 135.059 179.891 134.556 178.646 134.267L177.977 134.103C177.187 133.919 176.867 133.672 176.867 133.24C176.867 132.695 177.364 132.339 178.108 132.339C178.814 132.339 179.302 132.687 179.39 133.244H180.307C180.252 132.226 179.353 131.509 178.12 131.509C176.796 131.509 175.913 132.226 175.913 133.303C175.913 134.191 176.413 134.719 177.511 134.975L178.293 135.163C179.096 135.352 179.449 135.629 179.449 136.089C179.449 136.626 178.894 137.016 178.137 137.016C177.326 137.016 176.762 136.651 176.682 136.077H175.749Z" fill="#D9D9D9"/>
<rect x="40.9038" y="36.5448" width="179" height="179" rx="31.5" stroke="#D9D9D9"/>
</g>
<defs>
<filter id="filter0_d_20_2145" x="0.403809" y="0.0447998" width="260" height="260" filterUnits="userSpaceOnUse" color-interpolation-filters="sRGB">
<feFlood flood-opacity="0" result="BackgroundImageFix"/>
<feColorMatrix in="SourceAlpha" type="matrix" values="0 0 0 0 0 0 0 0 0 0 0 0 0 0 0 0 0 0 127 0" result="hardAlpha"/>
<feOffset dy="4"/>
<feGaussianBlur stdDeviation="20"/>
<feComposite in2="hardAlpha" operator="out"/>
<feColorMatrix type="matrix" values="0 0 0 0 0.0367917 0 0 0 0 0.0348958 0 0 0 0 0.0484375 0 0 0 0.1 0"/>
<feBlend mode="normal" in2="BackgroundImageFix" result="effect1_dropShadow_20_2145"/>
<feBlend mode="normal" in="SourceGraphic" in2="effect1_dropShadow_20_2145" result="shape"/>
</filter>
</defs>
</svg>
